<svg xmlns="http://www.w3.org/2000/svg" viewBox="0 0 113 113"><defs><style>.cls-1{fill:blue;}.cls-2{fill:#fff;}</style></defs><g id="Layer_2" data-name="Layer 2"><circle class="cls-1" cx="56.5" cy="56.5" r="56.25"/><path d="M130.5,45.5a56,56,0,1,1-56,56,56.06,56.06,0,0,1,56-56m0-.5A56.5,56.5,0,1,0,187,101.5,56.51,56.51,0,0,0,130.5,45Z" transform="translate(-74 -45)"/></g><g id="Layer_1" data-name="Layer 1"><ellipse class="cls-2" cx="56" cy="56.5" rx="40.75" ry="43.25"/><path d="M130,58.5c22.33,0,40.5,19.29,40.5,43s-18.17,43-40.5,43-40.5-19.29-40.5-43,18.17-43,40.5-43m0-.5c-22.64,0-41,19.48-41,43.5S107.36,145,130,145s41-19.48,41-43.5S152.64,58,130,58Z" transform="translate(-74 -45)"/></g></svg>