<svg xmlns="http://www.w3.org/2000/svg" viewBox="0 0 141.69 180.31"><defs><style>.cls-1{fill:red;}</style></defs><g id="Layer_1" data-name="Layer 1"><path class="cls-1" d="M59.13,192.52,183.52,29.16a8.24,8.24,0,0,1,9.87-2.56h0a8.24,8.24,0,0,1,3.25,12.55L72.25,202.51a8.24,8.24,0,0,1-9.87,2.56h0A8.24,8.24,0,0,1,59.13,192.52Z" transform="translate(-56.64 -25.91)"/><path class="cls-1" d="M183.23,203.18,58.22,39a7.7,7.7,0,0,1,3-11.72l1-.45a7.71,7.71,0,0,1,9.22,2.39l125,164.16a7.7,7.7,0,0,1-3,11.72l-1,.45A7.7,7.7,0,0,1,183.23,203.18Z" transform="translate(-56.64 -25.91)"/></g></svg>